<svg width="14" height="18" viewBox="0 0 14 18" fill="none" xmlns="http://www.w3.org/2000/svg">
<path d="M12.8333 4.83341H10.3333V4.00008C10.3333 3.11603 9.98214 2.26818 9.35701 1.64306C8.73189 1.01794 7.88405 0.666748 6.99999 0.666748C6.11594 0.666748 5.26809 1.01794 4.64297 1.64306C4.01785 2.26818 3.66666 3.11603 3.66666 4.00008V4.83341H1.16666C0.945648 4.83341 0.733686 4.92121 0.577406 5.07749C0.421126 5.23377 0.333328 5.44573 0.333328 5.66675V14.8334C0.333328 15.4965 0.59672 16.1323 1.06556 16.6012C1.5344 17.07 2.17029 17.3334 2.83333 17.3334H11.1667C11.8297 17.3334 12.4656 17.07 12.9344 16.6012C13.4033 16.1323 13.6667 15.4965 13.6667 14.8334V5.66675C13.6667 5.44573 13.5789 5.23377 13.4226 5.07749C13.2663 4.92121 13.0543 4.83341 12.8333 4.83341ZM5.33333 4.00008C5.33333 3.55805 5.50892 3.13413 5.82148 2.82157C6.13404 2.50901 6.55797 2.33341 6.99999 2.33341C7.44202 2.33341 7.86594 2.50901 8.1785 2.82157C8.49106 3.13413 8.66666 3.55805 8.66666 4.00008V4.83341H5.33333V4.00008ZM12 14.8334C12 15.0544 11.9122 15.2664 11.7559 15.4227C11.5996 15.5789 11.3877 15.6667 11.1667 15.6667H2.83333C2.61231 15.6667 2.40035 15.5789 2.24407 15.4227C2.08779 15.2664 1.99999 15.0544 1.99999 14.8334V6.50008H3.66666V7.33341C3.66666 7.55443 3.75446 7.76639 3.91074 7.92267C4.06702 8.07895 4.27898 8.16675 4.49999 8.16675C4.72101 8.16675 4.93297 8.07895 5.08925 7.92267C5.24553 7.76639 5.33333 7.55443 5.33333 7.33341V6.50008H8.66666V7.33341C8.66666 7.55443 8.75446 7.76639 8.91074 7.92267C9.06702 8.07895 9.27898 8.16675 9.49999 8.16675C9.72101 8.16675 9.93297 8.07895 10.0892 7.92267C10.2455 7.76639 10.3333 7.55443 10.3333 7.33341V6.50008H12V14.8334Z" fill="#111111"/>
</svg>
